<svg width="180" height="44" viewBox="0 0 180 44" fill="none" xmlns="http://www.w3.org/2000/svg">
<path d="M161.183 18.2572C159.932 18.2572 158.904 18.1668 158.098 17.9861C157.291 17.8193 156.666 17.583 156.221 17.2772C155.776 16.9714 155.463 16.6239 155.283 16.2347C155.116 15.8316 155.033 15.4076 155.033 14.9628C155.033 14.5458 155.095 14.1288 155.22 13.7117C155.359 13.2947 155.596 12.8638 155.929 12.419C156.124 12.8221 156.443 13.2113 156.888 13.5866C157.333 13.9619 157.833 14.2678 158.389 14.5041C158.959 14.7404 159.515 14.8585 160.058 14.8585C160.78 14.8585 161.378 14.7473 161.851 14.5249C162.337 14.2886 162.685 13.9272 162.893 13.4407C160.53 13.121 158.758 12.4677 157.576 11.4807C156.395 10.4799 155.804 9.3053 155.804 7.95695C155.804 7.16463 155.964 6.46961 156.284 5.87189C156.617 5.27417 157.055 4.77375 157.597 4.37064C158.139 3.95362 158.73 3.62001 159.369 3.3698C160.009 3.10569 160.641 2.91804 161.267 2.80684C161.892 2.68173 162.448 2.61918 162.935 2.61918C164.7 2.61918 166.056 2.82769 167.001 3.2447C167.96 3.64781 168.44 4.36369 168.44 5.39232C168.44 5.99004 168.301 6.49046 168.023 6.89357C167.758 7.29668 167.404 7.60249 166.959 7.811C166.528 8.0056 166.056 8.10291 165.541 8.10291C164.93 8.10291 164.332 7.92915 163.748 7.58164C163.164 7.22023 162.754 6.71981 162.518 6.08039C162.031 6.08039 161.552 6.2472 161.079 6.58081C160.607 6.90052 160.301 7.34533 160.162 7.91525C162.011 8.36007 163.498 8.85353 164.624 9.39565C165.764 9.93777 166.591 10.5494 167.105 11.2305C167.619 11.9116 167.877 12.6901 167.877 13.5658C167.877 14.5805 167.578 15.4354 166.98 16.1304C166.382 16.8254 165.576 17.3537 164.561 17.7151C163.56 18.0765 162.435 18.2572 161.183 18.2572Z" fill="black"/>
<path d="M150.004 18.278C149.337 18.278 148.753 18.0834 148.253 17.6942C147.753 17.2911 147.502 16.6517 147.502 15.776C147.502 15.6926 147.502 15.6092 147.502 15.5258C147.502 15.4284 147.509 15.3311 147.523 15.2338L147.315 15.1713C145.939 17.2286 144.09 18.2572 141.768 18.2572C140.601 18.2572 139.746 17.9444 139.204 17.3189C138.676 16.6934 138.411 15.8246 138.411 14.7126C138.411 14.1844 138.474 13.4685 138.599 12.565C138.738 11.6475 138.898 10.6467 139.079 9.56246C139.273 8.47822 139.461 7.40789 139.642 6.35145L138.537 4.12043C139.301 3.67561 140.017 3.3142 140.684 3.03619C141.365 2.75818 142.081 2.61918 142.832 2.61918C143.485 2.61918 143.916 2.80684 144.125 3.18215C144.333 3.55746 144.437 4.01617 144.437 4.55829C144.437 4.739 144.403 5.05176 144.333 5.49657C144.264 5.92749 144.173 6.4418 144.062 7.03952C143.965 7.63724 143.853 8.26276 143.728 8.91608C143.617 9.55551 143.506 10.181 143.395 10.7926C143.297 11.3904 143.214 11.9186 143.145 12.3773C143.075 12.836 143.04 13.1696 143.04 13.3781C143.04 13.8924 143.124 14.2956 143.291 14.5875C143.471 14.8794 143.763 15.0253 144.166 15.0253C144.5 15.0253 144.882 14.8794 145.313 14.5875C145.758 14.2956 146.203 13.8577 146.647 13.2739C147.092 12.6762 147.475 11.9325 147.794 11.0429C147.502 10.181 147.356 9.3053 147.356 8.41567C147.356 7.40093 147.523 6.4557 147.857 5.57998C148.204 4.70425 148.719 3.99532 149.4 3.45321C150.081 2.89719 150.929 2.61918 151.944 2.61918C152.263 2.61918 152.59 2.64698 152.924 2.70258C153.271 2.75818 153.591 2.86244 153.883 3.01534C153.758 3.76597 153.612 4.59304 153.445 5.49657C153.278 6.4001 153.104 7.31753 152.924 8.24886C152.757 9.16629 152.597 10.042 152.444 10.876C152.305 11.7101 152.187 12.4329 152.09 13.0445C152.006 13.6422 151.964 14.0662 151.964 14.3164C151.964 15.0253 152.013 15.6231 152.11 16.1096C152.222 16.5961 152.381 17.0062 152.59 17.3398C151.756 17.9653 150.894 18.278 150.004 18.278Z" fill="black"/>
<path d="M128.645 18.2572C127.143 18.2572 125.851 17.9653 124.766 17.3815C123.696 16.7976 122.869 15.9845 122.285 14.9419C121.715 13.8994 121.43 12.704 121.43 11.3556C121.43 9.60416 121.757 8.07511 122.41 6.76846C123.078 5.46182 124.023 4.44709 125.246 3.72426C126.483 2.98754 127.964 2.61918 129.687 2.61918C130.521 2.61918 131.112 2.79293 131.46 3.14045C131.807 3.47406 131.981 3.96752 131.981 4.62084C131.981 4.71815 131.974 4.8085 131.96 4.8919C131.96 4.97531 131.953 5.07261 131.939 5.18381C132.467 4.7668 133.037 4.55829 133.649 4.55829C134.163 4.55829 134.657 4.71815 135.129 5.03786C135.602 5.34367 135.984 5.82323 136.276 6.47656C136.582 7.12988 136.735 7.95695 136.735 8.95779C136.735 10.4451 136.505 11.7657 136.047 12.9194C135.602 14.0732 134.99 15.0462 134.212 15.8385C133.447 16.6308 132.585 17.2355 131.626 17.6525C130.667 18.0556 129.673 18.2572 128.645 18.2572ZM128.811 15.213C129.493 15.213 130.111 14.9489 130.667 14.4207C131.237 13.8785 131.626 13.1835 131.835 12.3356C131.348 11.7379 131.001 11.1402 130.792 10.5424C130.598 9.93082 130.5 9.32615 130.5 8.72843C130.5 8.10291 130.577 7.54689 130.73 7.06037C130.883 6.57386 131.084 6.15684 131.334 5.80933C131.084 5.76763 130.834 5.74678 130.584 5.74678C129.805 5.74678 129.124 5.91359 128.54 6.2472C127.971 6.58081 127.491 7.02562 127.102 7.58164C126.726 8.12376 126.441 8.72148 126.247 9.3748C126.066 10.0142 125.976 10.6467 125.976 11.2722C125.976 11.9811 126.08 12.6345 126.289 13.2322C126.511 13.8299 126.831 14.3095 127.248 14.6709C127.679 15.0323 128.2 15.213 128.811 15.213Z" fill="black"/>
<path d="M112.078 18.2572C110.674 18.2572 109.68 18.0626 109.096 17.6734C108.513 17.2703 108.221 16.6169 108.221 15.7134C108.221 14.8516 108.221 14.1288 108.221 13.5449C108.235 12.9472 108.241 12.3912 108.241 11.8769C108.241 11.0846 108.214 10.2853 108.158 9.47905C108.102 8.67283 107.991 7.90135 107.824 7.16463C107.658 6.4279 107.407 5.76068 107.074 5.16296C106.74 4.56524 106.295 4.07873 105.739 3.70341C106.685 2.98059 107.769 2.61918 108.992 2.61918C109.84 2.61918 110.514 2.86244 111.015 3.34895C111.515 3.83547 111.89 4.48879 112.141 5.30892C112.391 6.11514 112.551 7.01172 112.62 7.99865C112.704 8.97169 112.745 9.95167 112.745 10.9386C112.745 11.578 112.731 12.1966 112.704 12.7943C112.69 13.392 112.683 13.9411 112.683 14.4415H113.225C113.545 13.7465 113.885 12.9611 114.246 12.0854C114.608 11.2097 114.948 10.32 115.268 9.4165C115.588 8.51297 115.845 7.65809 116.04 6.85187C116.248 6.04564 116.352 5.37147 116.352 4.82935C116.352 4.59304 116.332 4.38454 116.29 4.20383C116.248 4.00922 116.193 3.84242 116.123 3.70341C116.651 3.342 117.145 3.07094 117.603 2.89024C118.076 2.70953 118.556 2.61918 119.042 2.61918C119.807 2.61918 120.342 2.84159 120.648 3.2864C120.967 3.71731 121.127 4.28028 121.127 4.97531C121.127 5.48962 121.03 6.09429 120.835 6.78931C120.641 7.48434 120.384 8.22106 120.064 8.99949C119.758 9.77791 119.431 10.5563 119.084 11.3348C118.736 12.0993 118.396 12.8221 118.062 13.5032C117.742 14.1844 117.478 14.7751 117.27 15.2755L117.562 16.4223C117.173 16.742 116.679 17.0409 116.081 17.3189C115.498 17.5969 114.858 17.8193 114.163 17.9861C113.482 18.1668 112.787 18.2572 112.078 18.2572Z" fill="black"/>
<path d="M97.184 13.9203C96.7947 13.9203 96.475 13.816 96.2248 13.6075C95.9885 13.3851 95.8704 12.982 95.8704 12.3982C95.8704 11.6614 96.065 10.8691 96.4542 10.0212C96.6488 10.0768 96.8295 10.1185 96.9963 10.1463C97.1631 10.1602 97.3438 10.1671 97.5384 10.1671C98.0527 10.1671 98.5462 10.1046 99.0188 9.97948C99.5053 9.84047 99.9779 9.68062 100.437 9.49991C100.909 9.3192 101.375 9.1663 101.834 9.04119C102.306 8.90219 102.786 8.83269 103.272 8.83269C103.662 8.83269 103.974 8.94389 104.211 9.1663C104.461 9.3748 104.586 9.77097 104.586 10.3548C104.586 11.0915 104.391 11.8838 104.002 12.7318C103.821 12.6623 103.641 12.6206 103.46 12.6067C103.293 12.5928 103.112 12.5858 102.918 12.5858C102.404 12.5858 101.903 12.6553 101.417 12.7943C100.944 12.9194 100.471 13.0723 99.9988 13.253C99.5401 13.4337 99.0744 13.5936 98.6018 13.7326C98.1431 13.8577 97.6705 13.9203 97.184 13.9203Z" fill="black"/>
<path d="M90.6821 18.2572C89.8203 18.2572 88.9376 18.1321 88.0341 17.8819C87.1306 17.6317 86.2062 17.2077 85.2609 16.61C84.7883 17.166 84.3088 17.5622 83.8222 17.7985C83.3357 18.0348 82.8909 18.1529 82.4878 18.1529C81.8206 18.1529 81.2785 17.9653 80.8614 17.59C80.4583 17.2008 80.2568 16.6795 80.2568 16.0262C80.2568 15.5814 80.368 15.1435 80.5904 14.7126C80.8128 14.2817 81.1464 13.9272 81.5912 13.6492C82.0499 13.3573 82.6129 13.2113 83.2801 13.2113L87.2835 7.87355C86.2965 7.84575 85.4138 7.7137 84.6354 7.47739C83.857 7.24108 83.2384 6.87967 82.7797 6.39315C82.3349 5.90664 82.1125 5.26722 82.1125 4.47489C82.1125 4.23858 82.1264 3.97447 82.1542 3.68256C82.1959 3.37675 82.2515 3.05009 82.321 2.70258C82.877 2.92499 83.5373 3.12655 84.3018 3.30725C85.0802 3.47406 85.8656 3.62001 86.6579 3.74512C87.4642 3.87022 88.1939 3.96752 88.8473 4.03703C89.5006 4.09263 89.9871 4.12043 90.3068 4.12043C90.6126 3.59221 90.9671 3.2169 91.3702 2.99449C91.7733 2.75818 92.1973 2.64003 92.6421 2.64003C93.3371 2.64003 93.8584 2.85549 94.2059 3.2864C94.5534 3.70341 94.7271 4.19688 94.7271 4.7668C94.7271 5.28112 94.5673 5.72593 94.2476 6.10124C93.9279 6.46266 93.5039 6.76151 92.9757 6.99782L87.6379 13.67L91.3076 14.0662L93.8306 12.9194C93.9001 13.1974 93.9418 13.4754 93.9557 13.7534C93.9835 14.0176 93.9974 14.2886 93.9974 14.5666C93.9974 15.4284 93.8445 16.1304 93.5387 16.6725C93.2467 17.2147 92.8506 17.6108 92.3502 17.861C91.8498 18.1251 91.2937 18.2572 90.6821 18.2572Z" fill="black"/>
<path d="M71.5591 18.278C70.6278 18.278 69.9675 18.0139 69.5783 17.4857C69.203 16.9436 69.0153 16.1304 69.0153 15.0462C69.0153 14.3512 69.1265 13.3086 69.3489 11.9186C69.5853 10.5146 69.9119 8.65893 70.3289 6.35145L69.2238 4.12043C69.8772 3.70342 70.5722 3.34896 71.3089 3.05705C72.0456 2.75124 72.7824 2.59833 73.5191 2.59833C73.9917 2.59833 74.3392 2.70953 74.5616 2.93194C74.7979 3.15435 74.9578 3.43236 75.0412 3.76597C75.5277 3.75207 76.0976 3.69647 76.7509 3.59916C77.4043 3.50186 78.0923 3.37676 78.8152 3.22385C79.538 3.07095 80.24 2.89719 80.9211 2.70258C80.9906 2.96669 81.0323 3.20995 81.0462 3.43236C81.074 3.65477 81.0879 3.86327 81.0879 4.05788C81.0879 4.8502 80.9072 5.49658 80.5458 5.99699C80.1843 6.49741 79.6978 6.86577 79.0862 7.10208C78.4885 7.33839 77.8282 7.45654 77.1054 7.45654C76.327 7.45654 75.5485 7.28973 74.7701 6.95612C74.6867 7.42874 74.5964 7.92916 74.4991 8.45737C74.4018 8.97169 74.2975 9.49296 74.1863 10.0212C74.4087 10.0629 74.6242 10.0976 74.8327 10.1254C75.0551 10.1532 75.2775 10.1671 75.4999 10.1671C75.7779 10.1115 76.0907 10.042 76.4382 9.95862C76.7996 9.86132 77.1123 9.77097 77.3765 9.68756C77.4321 9.86827 77.4599 10.0559 77.4599 10.2505C77.4738 10.4312 77.4807 10.5772 77.4807 10.6884C77.4807 11.3556 77.2514 11.8421 76.7926 12.1479C76.3478 12.4538 75.8196 12.6067 75.208 12.6067C74.9439 12.6067 74.6937 12.5928 74.4574 12.565C74.2211 12.5233 73.9847 12.4746 73.7484 12.419C73.6789 12.836 73.6233 13.2322 73.5816 13.6075C73.5399 13.9828 73.5191 14.4137 73.5191 14.9002H76.8969C77.9533 14.7473 79.0167 14.4763 80.087 14.0871C80.1426 14.24 80.1774 14.3998 80.1913 14.5666C80.2052 14.7334 80.2122 14.9141 80.2122 15.1087C80.2122 15.5953 80.1148 16.0818 79.9202 16.5683C79.7256 17.0548 79.4268 17.4579 79.0237 17.7776C78.6205 18.0973 78.1132 18.2572 77.5016 18.2572C77.1819 18.2572 76.8552 18.2294 76.5216 18.1738C76.188 18.1182 75.8405 18.0556 75.479 17.9861C75.2149 17.9305 74.93 17.8749 74.6242 17.8193C74.3323 17.7637 74.0056 17.7151 73.6442 17.6734C72.977 18.0765 72.2819 18.278 71.5591 18.278Z" fill="black"/>
<path d="M57.4772 18.2572C56.5876 18.2572 55.7883 18.1112 55.0794 17.8193C54.3844 17.5274 53.8353 17.0965 53.4322 16.5266C53.0291 15.9428 52.8275 15.213 52.8275 14.3373C52.8275 13.809 52.8901 13.121 53.0152 12.273C53.1542 11.4251 53.321 10.4938 53.5156 9.47905C53.7102 8.45042 53.8979 7.40789 54.0786 6.35145L52.9735 4.12043C53.7519 3.67561 54.4956 3.3142 55.2045 3.03619C55.9273 2.75818 56.6849 2.61918 57.4772 2.61918C57.8109 2.61918 58.0889 2.67478 58.3113 2.78598C58.5337 2.89719 58.7144 3.05009 58.8534 3.2447C59.4511 3.03619 60.0141 2.88329 60.5423 2.78598C61.0705 2.68868 61.5709 2.64003 62.0435 2.64003C63.3085 2.64003 64.3649 2.92499 65.2128 3.49491C66.0608 4.06483 66.6932 4.81545 67.1103 5.74678C67.5412 6.67811 67.7566 7.69284 67.7566 8.79098C67.7566 9.66671 67.6176 10.5494 67.3396 11.439C67.0755 12.3286 66.6654 13.1835 66.1094 14.0037C65.5673 14.8238 64.8862 15.5536 64.0661 16.193C63.2459 16.8324 62.2868 17.3398 61.1887 17.7151C60.0905 18.0765 58.8534 18.2572 57.4772 18.2572ZM58.2279 15.213C59.2843 15.213 60.167 14.9489 60.8759 14.4207C61.5987 13.8924 62.1408 13.1974 62.5023 12.3356C62.8637 11.4738 63.0444 10.5424 63.0444 9.54161C63.0444 8.29056 62.7594 7.27583 62.1895 6.49741C61.6196 5.70508 60.7717 5.30892 59.6457 5.30892C59.5206 5.30892 59.3886 5.31587 59.2496 5.32977C59.1105 5.34367 58.9646 5.36452 58.8117 5.39232C58.7283 5.94834 58.6171 6.64336 58.4781 7.47739C58.353 8.31142 58.207 9.20104 58.0402 10.1463C57.8873 11.0776 57.7344 11.9881 57.5815 12.8777C57.4425 13.7534 57.3313 14.5041 57.2479 15.1296C57.4147 15.1574 57.5815 15.1782 57.7483 15.1921C57.9151 15.206 58.075 15.213 58.2279 15.213Z" fill="black"/>
<path d="M37.1245 18.278C36.1932 18.278 35.5329 18.0139 35.1437 17.4857C34.7684 16.9436 34.5808 16.1304 34.5808 15.0462C34.5808 14.3512 34.692 13.3086 34.9144 11.9186C35.1507 10.5146 35.4773 8.65893 35.8944 6.35145L34.7893 4.12043C35.4426 3.70341 36.1376 3.34895 36.8743 3.05704C37.6111 2.76513 38.3478 2.61918 39.0845 2.61918C40.0853 2.61918 40.8707 2.77208 41.4406 3.07789C42.0106 3.3837 42.4345 3.81462 42.7125 4.37064C43.0044 4.92665 43.2199 5.57998 43.3589 6.3306C43.5118 7.08122 43.6508 7.90135 43.7759 8.79098C43.901 9.66671 44.0887 10.5841 44.3389 11.5433C44.5891 12.5024 44.9714 13.4754 45.4857 14.4624L45.9861 14.1288C45.5969 13.3642 45.2702 12.4746 45.0061 11.4599C44.7559 10.4451 44.6308 9.4304 44.6308 8.41567C44.6308 7.40093 44.7976 6.4557 45.1312 5.57998C45.4787 4.70425 45.993 3.99532 46.6742 3.45321C47.3553 2.89719 48.2032 2.61918 49.2179 2.61918C49.5377 2.61918 49.8713 2.65393 50.2188 2.72343C50.5802 2.77903 50.8929 2.87634 51.1571 3.01534C51.032 3.76597 50.886 4.59304 50.7192 5.49657C50.5524 6.3862 50.3786 7.28973 50.1979 8.20716C50.0311 9.12459 49.8713 9.99337 49.7184 10.8135C49.5794 11.6336 49.4612 12.3495 49.3639 12.9611C49.2805 13.5588 49.2388 13.9828 49.2388 14.233C49.2388 14.9558 49.2944 15.5536 49.4056 16.0262C49.5168 16.4849 49.6836 16.8741 49.906 17.1938C49.5029 17.4579 49.1276 17.6664 48.7801 17.8193C48.4326 17.9722 48.0573 18.0834 47.6541 18.1529C47.2649 18.2224 46.8062 18.2572 46.278 18.2572C45.1938 18.2572 44.2833 18 43.5466 17.4857C42.8237 16.9714 42.2399 16.2625 41.7951 15.3589C41.3503 14.4554 41.0167 13.4198 40.7943 12.2522C40.5858 11.0846 40.4468 9.84742 40.3773 8.54077H40.0436C39.8768 9.3192 39.717 10.0976 39.5641 10.876C39.4251 11.6545 39.3069 12.3495 39.2096 12.9611C39.1262 13.5727 39.0845 14.0245 39.0845 14.3164C39.0845 15.0253 39.1332 15.6231 39.2305 16.1096C39.3417 16.5961 39.5015 17.0062 39.71 17.3398C38.876 17.9653 38.0142 18.278 37.1245 18.278Z" fill="black"/>
<path d="M24.3193 18.278C23.388 18.278 22.7277 18.0139 22.3385 17.4857C21.9632 16.9436 21.7755 16.1304 21.7755 15.0462C21.7755 14.3512 21.8867 13.3086 22.1091 11.9186C22.3454 10.5146 22.6721 8.65893 23.0891 6.35145L21.984 4.12043C22.6373 3.70342 23.3324 3.34896 24.0691 3.05705C24.8058 2.75124 25.5425 2.59833 26.2793 2.59833C26.7519 2.59833 27.0994 2.70953 27.3218 2.93194C27.5581 3.15435 27.718 3.43236 27.8014 3.76597C28.2879 3.75207 28.8578 3.69647 29.5111 3.59916C30.1644 3.50186 30.8525 3.37676 31.5753 3.22385C32.2982 3.07095 33.0001 2.89719 33.6813 2.70258C33.7508 2.96669 33.7925 3.20995 33.8064 3.43236C33.8342 3.65477 33.8481 3.86327 33.8481 4.05788C33.8481 4.8502 33.6674 5.49658 33.3059 5.99699C32.9445 6.49741 32.458 6.86577 31.8464 7.10208C31.2487 7.33839 30.5884 7.45654 29.8656 7.45654C29.0872 7.45654 28.3087 7.28973 27.5303 6.95612C27.4469 7.42874 27.3565 7.92916 27.2592 8.45737C27.1619 8.97169 27.0577 9.49296 26.9465 10.0212C27.1689 10.0629 27.3843 10.0976 27.5929 10.1254C27.8153 10.1532 28.0377 10.1671 28.2601 10.1671C28.5381 10.1115 28.8508 10.042 29.1984 9.95862C29.5598 9.86132 29.8725 9.77097 30.1366 9.68756C30.1922 9.86827 30.22 10.0559 30.22 10.2505C30.2339 10.4312 30.2409 10.5772 30.2409 10.6884C30.2409 11.3556 30.0115 11.8421 29.5528 12.1479C29.108 12.4538 28.5798 12.6067 27.9682 12.6067C27.7041 12.6067 27.4538 12.5928 27.2175 12.565C26.9812 12.5233 26.7449 12.4746 26.5086 12.419C26.4391 12.836 26.3835 13.2322 26.3418 13.6075C26.3001 13.9828 26.2793 14.4137 26.2793 14.9002H29.6571C30.7135 14.7473 31.7769 14.4763 32.8472 14.0871C32.9028 14.24 32.9376 14.3998 32.9515 14.5666C32.9654 14.7334 32.9723 14.9141 32.9723 15.1087C32.9723 15.5953 32.875 16.0818 32.6804 16.5683C32.4858 17.0548 32.187 17.4579 31.7838 17.7776C31.3807 18.0973 30.8734 18.2572 30.2617 18.2572C29.942 18.2572 29.6154 18.2294 29.2818 18.1738C28.9481 18.1182 28.6006 18.0556 28.2392 17.9861C27.9751 17.9305 27.6902 17.8749 27.3843 17.8193C27.0924 17.7637 26.7658 17.7151 26.4044 17.6734C25.7371 18.0765 25.0421 18.278 24.3193 18.278Z" fill="black"/>
<path d="M3.81567 23.8079C2.41868 23.8079 1.42827 23.4118 0.844453 22.6194C0.281484 21.8063 0 20.5865 0 18.9601C0 17.9176 0.166805 16.3538 0.500416 14.2687C0.854878 12.1628 1.34487 9.37926 1.97039 5.91805L0.31276 2.57151C1.29274 1.94599 2.33528 1.4143 3.44036 0.976433C4.54545 0.538569 5.65053 0.319637 6.75562 0.319637C7.31859 0.319637 7.93368 0.40304 8.60091 0.569846C9.28898 0.73665 9.8311 0.966007 10.2273 1.25792C11.7911 0.632397 13.1985 0.319637 14.4495 0.319637C15.8048 0.319637 16.9412 0.632397 17.8586 1.25792C18.7969 1.88344 19.5058 2.69661 19.9854 3.69745C20.4649 4.69828 20.7047 5.77209 20.7047 6.91888C20.7047 8.21162 20.3711 9.49394 19.7039 10.7658C19.0367 12.0377 18.015 13.0907 16.6388 13.9247C17.0976 15.2174 17.598 16.4268 18.1401 17.5527C18.7031 18.6578 19.2869 19.6065 19.8916 20.3988C20.4962 21.1703 179.416 20.2216 180 20.5552C179.708 20.868 79.4412 22.3979 78.9199 22.669C78.3986 22.9192 25.49 24.9495 18.7969 23.5264C18.2131 23.6932 17.6814 23.7766 17.2018 23.7766C16.3052 23.7766 15.5129 23.6307 14.8248 23.3388C14.1368 23.0677 13.5217 22.5569 12.9795 21.8063C12.4583 21.0556 11.9579 20.0027 11.4783 18.6474L10.3836 15.4885C9.2994 15.4885 8.20474 15.3217 7.09966 14.9881C6.8703 16.3225 6.75562 17.2817 6.75562 17.8655C6.75562 18.9289 6.8286 19.8254 6.97455 20.5552C7.14136 21.285 7.38114 21.9001 7.6939 22.4005C6.44286 23.3388 5.15012 23.8079 3.81567 23.8079ZM8.4758 11.579C9.66429 11.579 10.6443 11.3705 11.4157 10.9535C12.2081 10.5156 12.7919 9.9735 13.1672 9.32713C13.5634 8.65991 13.7614 8.00311 13.7614 7.35674C13.7614 6.56441 13.5008 5.86592 12.9795 5.26125C12.4583 4.63573 11.6764 4.32297 10.6338 4.32297C10.0917 4.32297 9.54961 4.39595 9.00749 4.5419C8.92409 5.10487 8.81984 5.78251 8.69473 6.57484C8.56963 7.34632 8.4341 8.16992 8.28815 9.04565C8.14219 9.90052 7.96496 10.7346 7.75645 11.5477C7.86071 11.5686 7.96496 11.579 8.06921 11.579C8.19432 11.579 8.32985 11.579 8.4758 11.579Z" fill="#1E5631"/>
<path d="M81.9852 43.364C81.0539 43.364 80.3936 43.0999 80.0044 42.5717C79.6291 42.0296 79.4414 41.2164 79.4414 40.1322C79.4414 39.4371 79.5526 38.3946 79.775 37.0046C80.0114 35.6006 80.338 33.7449 80.755 31.4374L79.6499 29.2064C80.3033 28.7894 80.9983 28.4349 81.735 28.143C82.4717 27.8372 83.2085 27.6843 83.9452 27.6843C84.5985 27.6843 85.0294 27.8789 85.2379 28.2681C85.4464 28.6573 85.5507 29.1161 85.5507 29.6443C85.5507 29.8667 85.509 30.2281 85.4256 30.7285C85.3561 31.215 85.2588 31.7919 85.1337 32.4591C85.0086 33.1124 84.8765 33.8005 84.7375 34.5233C84.6124 35.2462 84.4873 35.962 84.3622 36.671C84.2371 37.366 84.1328 38.0054 84.0494 38.5892C83.9799 39.1591 83.9452 39.6248 83.9452 39.9862H86.1971C87.2535 39.8333 88.3169 39.5622 89.3872 39.173C89.4428 39.3259 89.4776 39.4858 89.4915 39.6526C89.5054 39.8194 89.5123 40.0001 89.5123 40.1947C89.5123 40.6812 89.415 41.1678 89.2204 41.6543C89.0258 42.1408 88.7269 42.5439 88.3238 42.8636C87.9207 43.1833 87.4133 43.3432 86.8017 43.3432C86.204 43.3432 85.6827 43.2876 85.2379 43.1764C84.7931 43.0791 84.3274 42.9818 83.8409 42.8845C83.5351 43.0513 83.2293 43.1694 82.9235 43.2389C82.6177 43.3223 82.3049 43.364 81.9852 43.364Z" fill="black"/>
<path d="M69.0757 43.364C68.1444 43.364 67.4841 43.0999 67.0949 42.5717C66.7196 42.0296 66.5319 41.2164 66.5319 40.1322C66.5319 39.4371 66.6431 38.3946 66.8655 37.0046C67.1019 35.6006 67.4285 33.7449 67.8455 31.4374L66.7404 29.2064C67.3938 28.7894 68.0888 28.4349 68.8255 28.143C69.5622 27.8372 70.299 27.6843 71.0357 27.6843C71.5083 27.6843 71.8558 27.7955 72.0782 28.0179C72.3145 28.2403 72.4744 28.5183 72.5578 28.8519C73.0443 28.838 73.6142 28.7824 74.2675 28.6851C74.9209 28.5878 75.6089 28.4627 76.3318 28.3098C77.0546 28.1569 77.7566 27.9832 78.4377 27.7886C78.5072 28.0527 78.5489 28.2959 78.5628 28.5183C78.5906 28.7407 78.6045 28.9493 78.6045 29.1439C78.6045 29.9362 78.4238 30.5826 78.0624 31.083C77.701 31.5834 77.2144 31.9518 76.6028 32.1881C76.0051 32.4244 75.3448 32.5425 74.622 32.5425C73.8436 32.5425 73.0651 32.3757 72.2867 32.0421C72.2033 32.5147 72.113 33.0151 72.0157 33.5434C71.9184 34.0577 71.8141 34.5789 71.7029 35.1072C71.9253 35.1489 72.1408 35.1836 72.3493 35.2114C72.5717 35.2392 72.7941 35.2531 73.0165 35.2531C73.2945 35.1975 73.6073 35.128 73.9548 35.0446C74.3162 34.9473 74.629 34.8569 74.8931 34.7735C74.9487 34.9542 74.9765 35.1419 74.9765 35.3365C74.9904 35.5172 74.9973 35.6632 74.9973 35.7744C74.9973 36.4416 74.768 36.9281 74.3092 37.2339C73.8644 37.5397 73.3362 37.6926 72.7246 37.6926C72.4605 37.6926 72.2103 37.6787 71.974 37.6509C71.7377 37.6092 71.5013 37.5606 71.265 37.505C71.1955 37.922 71.1399 38.3182 71.0982 38.6935C71.0565 39.0688 71.0357 39.4997 71.0357 39.9862H74.4135C75.4699 39.8333 76.5333 39.5622 77.6036 39.173C77.6593 39.3259 77.694 39.4858 77.7079 39.6526C77.7218 39.8194 77.7288 40.0001 77.7288 40.1947C77.7288 40.6812 77.6315 41.1678 77.4368 41.6543C77.2422 42.1408 76.9434 42.5439 76.5403 42.8636C76.1372 43.1833 75.6298 43.3432 75.0182 43.3432C74.6985 43.3432 74.3718 43.3154 74.0382 43.2598C73.7046 43.2042 73.3571 43.1416 72.9956 43.0721C72.7315 43.0165 72.4466 42.9609 72.1408 42.9053C71.8489 42.8497 71.5222 42.8011 71.1608 42.7594C70.4936 43.1625 69.7985 43.364 69.0757 43.364Z" fill="black"/>
<path d="M58.6144 43.364C57.683 43.364 57.0228 43.0999 56.6336 42.5717C56.2582 42.0296 56.0706 41.2164 56.0706 40.1322C56.0706 39.4649 56.1748 38.4711 56.3833 37.1505C56.5919 35.83 56.8907 34.0994 57.2799 31.9587C56.9602 32.0004 56.5502 32.063 56.0497 32.1464C55.5632 32.2298 55.0698 32.3201 54.5693 32.4174C54.0689 32.5008 53.6519 32.5842 53.3183 32.6676C53.2349 32.4035 53.1862 32.1464 53.1723 31.8961C53.1584 31.6459 53.1515 31.4513 53.1515 31.3123C53.1515 30.52 53.2905 29.8736 53.5685 29.3732C53.8604 28.8728 54.2427 28.5044 54.7153 28.2681C55.1879 28.0318 55.7022 27.9137 56.2582 27.9137C56.9672 27.9137 57.6691 27.9832 58.3642 28.1222C59.0592 28.2473 59.7542 28.3793 60.4492 28.5183C61.1582 28.6573 61.881 28.7407 62.6177 28.7685C63.132 28.6712 63.7019 28.5461 64.3275 28.3932C64.9669 28.2403 65.5229 28.0944 65.9955 27.9554C66.0789 28.2195 66.1276 28.4766 66.1415 28.7268C66.1554 28.9771 66.1623 29.1717 66.1623 29.3107C66.1623 30.103 66.0025 30.7494 65.6828 31.2498C65.3769 31.7502 64.9599 32.1186 64.4317 32.3549C63.9174 32.5912 63.3475 32.7093 62.722 32.7093C62.5412 32.7093 62.3675 32.7093 62.2007 32.7093C62.0339 32.6954 61.874 32.6815 61.7211 32.6676C61.596 33.2931 61.464 33.9465 61.325 34.6276C61.1999 35.3087 61.0817 35.969 60.9705 36.6084C60.8593 37.2339 60.762 37.7969 60.6786 38.2973C60.6091 38.7838 60.5743 39.1522 60.5743 39.4024C60.5743 40.1113 60.623 40.709 60.7203 41.1956C60.8315 41.6821 60.9913 42.0921 61.1999 42.4257C60.3658 43.0513 59.504 43.364 58.6144 43.364Z" fill="black"/>
<path d="M44.469 43.3432C42.9677 43.3432 41.675 43.0513 40.5908 42.4674C39.5204 41.8836 38.6933 41.0704 38.1095 40.0279C37.5396 38.9854 37.2546 37.7899 37.2546 36.4416C37.2546 34.6901 37.5813 33.1611 38.2346 31.8544C38.9019 30.5478 39.8471 29.5331 41.0703 28.8102C42.3075 28.0735 43.7879 27.7052 45.5115 27.7052C46.3455 27.7052 46.9363 27.8789 47.2838 28.2264C47.6313 28.56 47.8051 29.0535 47.8051 29.7068C47.8051 29.8041 47.7981 29.8945 47.7842 29.9779C47.7842 30.0613 47.7773 30.1586 47.7634 30.2698C48.2916 29.8528 48.8615 29.6443 49.4731 29.6443C49.9875 29.6443 50.4809 29.8041 50.9535 30.1238C51.4262 30.4296 51.8084 30.9092 52.1003 31.5625C52.4061 32.2159 52.559 33.0429 52.559 34.0438C52.559 35.5311 52.3297 36.8517 51.871 38.0054C51.4262 39.1591 50.8145 40.1322 50.0361 40.9245C49.2716 41.7168 48.4098 42.3215 47.4506 42.7385C46.4915 43.1416 45.4976 43.3432 44.469 43.3432ZM44.6358 40.299C45.3169 40.299 45.9355 40.0349 46.4915 39.5066C47.0614 38.9645 47.4506 38.2695 47.6591 37.4216C47.1726 36.8239 46.8251 36.2261 46.6166 35.6284C46.422 35.0168 46.3247 34.4121 46.3247 33.8144C46.3247 33.1889 46.4011 32.6329 46.5541 32.1463C46.707 31.6598 46.9085 31.2428 47.1587 30.8953C46.9085 30.8536 46.6583 30.8328 46.4081 30.8328C45.6297 30.8328 44.9485 30.9996 44.3647 31.3332C43.7948 31.6668 43.3152 32.1116 42.926 32.6676C42.5507 33.2097 42.2658 33.8075 42.0712 34.4608C41.8904 35.1002 41.8001 35.7327 41.8001 36.3582C41.8001 37.0671 41.9043 37.7204 42.1129 38.3182C42.3353 38.9159 42.655 39.3954 43.072 39.7568C43.5029 40.1183 44.0242 40.299 44.6358 40.299Z" fill="black"/>
<path d="M23.3427 43.364C22.4113 43.364 21.7511 43.0999 21.3619 42.5717C20.9866 42.0296 20.7989 41.2164 20.7989 40.1322C20.7989 39.4371 20.9101 38.3946 21.1325 37.0046C21.3688 35.6006 21.6955 33.7449 22.1125 31.4374L21.0074 29.2064C21.6607 28.7894 22.3557 28.4349 23.0925 28.143C23.8292 27.8372 24.5659 27.6843 25.3026 27.6843C25.956 27.6843 26.3869 27.8789 26.5954 28.2681C26.8039 28.6573 26.9081 29.1161 26.9081 29.6443C26.9081 29.8806 26.8595 30.2698 26.7622 30.8119C26.6788 31.3401 26.5676 31.9517 26.4286 32.6468C26.3035 33.3418 26.1714 34.0507 26.0324 34.7735H30.703C30.7864 34.287 30.8767 33.7658 30.974 33.2097C31.0852 32.6537 31.1964 32.063 31.3076 31.4374L30.2026 29.2064C30.8559 28.7894 31.5509 28.4349 32.2876 28.143C33.0243 27.8372 33.7611 27.6843 34.4978 27.6843C35.1511 27.6843 35.582 27.8789 35.7905 28.2681C35.999 28.6573 36.1033 29.1161 36.1033 29.6443C36.1033 29.8667 36.0616 30.2281 35.9782 30.7285C35.9087 31.215 35.8114 31.7849 35.6863 32.4383C35.5612 33.0777 35.4291 33.7519 35.2901 34.4608C35.165 35.1558 35.0399 35.8369 34.9148 36.5041C34.7897 37.1575 34.6855 37.7413 34.602 38.2556C34.5325 38.756 34.4978 39.1383 34.4978 39.4024C34.4978 40.1113 34.5464 40.709 34.6437 41.1956C34.755 41.6821 34.9148 42.0921 35.1233 42.4257C34.2893 43.0513 33.4275 43.364 32.5378 43.364C31.6065 43.364 30.9462 43.0999 30.557 42.5717C30.1817 42.0296 29.994 41.2164 29.994 40.1322C29.994 39.8125 30.0149 39.4163 30.0566 38.9437C30.1122 38.4572 30.1887 37.8942 30.286 37.2548H25.5737C25.4903 37.7274 25.4208 38.1583 25.3652 38.5475C25.3235 38.9228 25.3026 39.2078 25.3026 39.4024C25.3026 40.1113 25.3513 40.709 25.4486 41.1956C25.5598 41.6821 25.7197 42.0921 25.9282 42.4257C25.0941 43.0513 24.2323 43.364 23.3427 43.364Z" fill="black"/>
<path d="M96.5972 22.4735L98.4624 28.214L104.498 28.214L99.6151 31.7618L101.48 37.5022L96.5972 33.9544L91.714 37.5022L93.5792 31.7618L88.6961 28.214L94.732 28.214L96.5972 22.4735Z" fill="#1E5631"/>
<path d="M113.213 21.8219L115.078 27.5624L121.114 27.5624L116.23 31.1102L118.096 36.8507L113.213 33.3028L108.329 36.8507L110.195 31.1102L105.311 27.5624L111.347 27.5624L113.213 21.8219Z" fill="#1E5631"/>
<path d="M129.828 21.1703L131.693 26.9108L137.729 26.9108L132.846 30.4586L134.711 36.1991L129.828 32.6513L124.945 36.1991L126.81 30.4586L121.927 26.9108L127.963 26.9108L129.828 21.1703Z" fill="#1E5631"/>
</svg>
