<svg width="148" height="17" viewBox="0 0 148 17" fill="none" xmlns="http://www.w3.org/2000/svg">
<path d="M140.183 16.2572C138.932 16.2572 137.904 16.1668 137.098 15.9861C136.291 15.8193 135.666 15.583 135.221 15.2772C134.776 14.9714 134.463 14.6239 134.283 14.2347C134.116 13.8316 134.033 13.4076 134.033 12.9628C134.033 12.5458 134.095 12.1288 134.22 11.7117C134.359 11.2947 134.596 10.8638 134.929 10.419C135.124 10.8221 135.443 11.2113 135.888 11.5866C136.333 11.9619 136.833 12.2678 137.389 12.5041C137.959 12.7404 138.515 12.8585 139.058 12.8585C139.78 12.8585 140.378 12.7473 140.851 12.5249C141.337 12.2886 141.685 11.9272 141.893 11.4407C139.53 11.121 137.758 10.4677 136.576 9.48072C135.395 8.47989 134.804 7.3053 134.804 5.95695C134.804 5.16463 134.964 4.46961 135.284 3.87189C135.617 3.27417 136.055 2.77375 136.597 2.37064C137.139 1.95362 137.73 1.62001 138.369 1.3698C139.009 1.10569 139.641 0.918039 140.267 0.806835C140.892 0.681731 141.448 0.619179 141.935 0.619179C143.7 0.619179 145.056 0.827685 146.001 1.2447C146.96 1.64781 147.44 2.36369 147.44 3.39232C147.44 3.99004 147.301 4.49046 147.023 4.89357C146.758 5.29668 146.404 5.60249 145.959 5.811C145.528 6.0056 145.056 6.10291 144.541 6.10291C143.93 6.10291 143.332 5.92915 142.748 5.58164C142.164 5.22023 141.754 4.71981 141.518 4.08039C141.031 4.08039 140.552 4.2472 140.079 4.58081C139.607 4.90052 139.301 5.34533 139.162 5.91525C141.011 6.36007 142.498 6.85353 143.624 7.39565C144.764 7.93777 145.591 8.54939 146.105 9.23051C146.619 9.91163 146.877 10.6901 146.877 11.5658C146.877 12.5805 146.578 13.4354 145.98 14.1304C145.382 14.8254 144.576 15.3537 143.561 15.7151C142.56 16.0765 141.435 16.2572 140.183 16.2572Z" fill="black"/>
<path d="M129.004 16.278C128.337 16.278 127.753 16.0834 127.253 15.6942C126.753 15.2911 126.502 14.6517 126.502 13.776C126.502 13.6926 126.502 13.6092 126.502 13.5258C126.502 13.4284 126.509 13.3311 126.523 13.2338L126.315 13.1713C124.939 15.2286 123.09 16.2572 120.768 16.2572C119.601 16.2572 118.746 15.9444 118.204 15.3189C117.676 14.6934 117.411 13.8246 117.411 12.7126C117.411 12.1844 117.474 11.4685 117.599 10.565C117.738 9.64752 117.898 8.64669 118.079 7.56246C118.273 6.47822 118.461 5.40789 118.642 4.35145L117.537 2.12043C118.301 1.67561 119.017 1.3142 119.684 1.03619C120.365 0.758183 121.081 0.619179 121.832 0.619179C122.485 0.619179 122.916 0.806835 123.125 1.18215C123.333 1.55746 123.437 2.01617 123.437 2.55829C123.437 2.739 123.403 3.05176 123.333 3.49657C123.264 3.92749 123.173 4.4418 123.062 5.03952C122.965 5.63724 122.853 6.26276 122.728 6.91608C122.617 7.55551 122.506 8.18103 122.395 8.79265C122.297 9.39037 122.214 9.91858 122.145 10.3773C122.075 10.836 122.04 11.1696 122.04 11.3781C122.04 11.8924 122.124 12.2956 122.291 12.5875C122.471 12.8794 122.763 13.0253 123.166 13.0253C123.5 13.0253 123.882 12.8794 124.313 12.5875C124.758 12.2956 125.203 11.8577 125.647 11.2739C126.092 10.6762 126.475 9.93248 126.794 9.04285C126.502 8.18103 126.356 7.3053 126.356 6.41567C126.356 5.40093 126.523 4.4557 126.857 3.57998C127.204 2.70425 127.719 1.99532 128.4 1.45321C129.081 0.897187 129.929 0.619179 130.944 0.619179C131.263 0.619179 131.59 0.64698 131.924 0.702582C132.271 0.758184 132.591 0.862437 132.883 1.01534C132.758 1.76597 132.612 2.59304 132.445 3.49657C132.278 4.4001 132.104 5.31753 131.924 6.24886C131.757 7.16629 131.597 8.04202 131.444 8.87605C131.305 9.71008 131.187 10.4329 131.09 11.0445C131.006 11.6422 130.964 12.0662 130.964 12.3164C130.964 13.0253 131.013 13.6231 131.11 14.1096C131.222 14.5961 131.381 15.0062 131.59 15.3398C130.756 15.9653 129.894 16.278 129.004 16.278Z" fill="black"/>
<path d="M107.645 16.2572C106.143 16.2572 104.851 15.9653 103.766 15.3815C102.696 14.7976 101.869 13.9845 101.285 12.9419C100.715 11.8994 100.43 10.704 100.43 9.35561C100.43 7.60416 100.757 6.07511 101.41 4.76846C102.078 3.46182 103.023 2.44709 104.246 1.72426C105.483 0.987541 106.964 0.619179 108.687 0.619179C109.521 0.619179 110.112 0.792934 110.46 1.14045C110.807 1.47406 110.981 1.96752 110.981 2.62084C110.981 2.71815 110.974 2.8085 110.96 2.8919C110.96 2.97531 110.953 3.07261 110.939 3.18381C111.467 2.7668 112.037 2.55829 112.649 2.55829C113.163 2.55829 113.657 2.71815 114.129 3.03786C114.602 3.34367 114.984 3.82323 115.276 4.47656C115.582 5.12988 115.735 5.95695 115.735 6.95779C115.735 8.44513 115.505 9.76568 115.047 10.9194C114.602 12.0732 113.99 13.0462 113.212 13.8385C112.447 14.6308 111.585 15.2355 110.626 15.6525C109.667 16.0556 108.673 16.2572 107.645 16.2572ZM107.811 13.213C108.493 13.213 109.111 12.9489 109.667 12.4207C110.237 11.8785 110.626 11.1835 110.835 10.3356C110.348 9.73788 110.001 9.14016 109.792 8.54244C109.598 7.93082 109.5 7.32615 109.5 6.72843C109.5 6.10291 109.577 5.54689 109.73 5.06037C109.883 4.57386 110.084 4.15684 110.334 3.80933C110.084 3.76763 109.834 3.74678 109.584 3.74678C108.805 3.74678 108.124 3.91359 107.54 4.2472C106.971 4.58081 106.491 5.02562 106.102 5.58164C105.726 6.12376 105.441 6.72148 105.247 7.3748C105.066 8.01422 104.976 8.64669 104.976 9.27221C104.976 9.98114 105.08 10.6345 105.289 11.2322C105.511 11.8299 105.831 12.3095 106.248 12.6709C106.679 13.0323 107.2 13.213 107.811 13.213Z" fill="black"/>
<path d="M91.078 16.2572C89.6741 16.2572 88.6802 16.0626 88.0964 15.6734C87.5125 15.2703 87.2206 14.6169 87.2206 13.7134C87.2206 12.8516 87.2206 12.1288 87.2206 11.5449C87.2345 10.9472 87.2415 10.3912 87.2415 9.87688C87.2415 9.08455 87.2137 8.28528 87.1581 7.47905C87.1025 6.67283 86.9913 5.90135 86.8245 5.16463C86.6577 4.4279 86.4075 3.76068 86.0739 3.16296C85.7402 2.56524 85.2954 2.07873 84.7394 1.70341C85.6846 0.980591 86.7689 0.619179 87.9921 0.619179C88.84 0.619179 89.5142 0.862436 90.0146 1.34895C90.515 1.83547 90.8904 2.48879 91.1406 3.30892C91.3908 4.11514 91.5506 5.01172 91.6201 5.99865C91.7035 6.97169 91.7452 7.95167 91.7452 8.9386C91.7452 9.57802 91.7313 10.1966 91.7035 10.7943C91.6896 11.392 91.6827 11.9411 91.6827 12.4415H92.2248C92.5445 11.7465 92.8851 10.9611 93.2465 10.0854C93.6079 9.20966 93.9485 8.32003 94.2682 7.4165C94.5879 6.51297 94.845 5.65809 95.0396 4.85187C95.2482 4.04564 95.3524 3.37147 95.3524 2.82935C95.3524 2.59304 95.3316 2.38454 95.2899 2.20383C95.2482 2.00922 95.1925 1.84242 95.123 1.70341C95.6513 1.342 96.1447 1.07094 96.6034 0.890238C97.0761 0.709532 97.5556 0.619179 98.0421 0.619179C98.8067 0.619179 99.3418 0.841586 99.6477 1.2864C99.9674 1.71731 100.127 2.28028 100.127 2.97531C100.127 3.48962 100.03 4.09429 99.8353 4.78931C99.6407 5.48434 99.3835 6.22106 99.0638 6.99949C98.758 7.77791 98.4314 8.55634 98.0838 9.33476C97.7363 10.0993 97.3958 10.8221 97.0622 11.5032C96.7425 12.1844 96.4783 12.7751 96.2698 13.2755L96.5617 14.4223C96.1725 14.742 95.6791 15.0409 95.0814 15.3189C94.4975 15.5969 93.8581 15.8193 93.1631 15.9861C92.482 16.1668 91.7869 16.2572 91.078 16.2572Z" fill="black"/>
<path d="M76.184 11.9203C75.7947 11.9203 75.475 11.816 75.2248 11.6075C74.9885 11.3851 74.8704 10.982 74.8704 10.3982C74.8704 9.66143 75.065 8.8691 75.4542 8.02118C75.6488 8.07678 75.8295 8.11848 75.9963 8.14628C76.1631 8.16018 76.3438 8.16713 76.5384 8.16713C77.0527 8.16713 77.5462 8.10458 78.0188 7.97948C78.5053 7.84047 78.9779 7.68062 79.4367 7.49991C79.9093 7.3192 80.3749 7.1663 80.8337 7.04119C81.3063 6.90219 81.7858 6.83269 82.2724 6.83269C82.6616 6.83269 82.9743 6.94389 83.2106 7.1663C83.4608 7.3748 83.5859 7.77097 83.5859 8.35479C83.5859 9.09151 83.3913 9.88384 83.0021 10.7318C82.8214 10.6623 82.6407 10.6206 82.46 10.6067C82.2932 10.5928 82.1125 10.5858 81.9179 10.5858C81.4036 10.5858 80.9032 10.6553 80.4166 10.7943C79.944 10.9194 79.4714 11.0723 78.9988 11.253C78.5401 11.4337 78.0744 11.5936 77.6018 11.7326C77.1431 11.8577 76.6705 11.9203 76.184 11.9203Z" fill="black"/>
<path d="M69.6821 16.2572C68.8203 16.2572 67.9376 16.1321 67.0341 15.8819C66.1306 15.6317 65.2062 15.2077 64.2609 14.61C63.7883 15.166 63.3088 15.5622 62.8222 15.7985C62.3357 16.0348 61.8909 16.1529 61.4878 16.1529C60.8206 16.1529 60.2785 15.9653 59.8614 15.59C59.4583 15.2008 59.2568 14.6795 59.2568 14.0262C59.2568 13.5814 59.368 13.1435 59.5904 12.7126C59.8128 12.2817 60.1464 11.9272 60.5912 11.6492C61.0499 11.3573 61.6129 11.2113 62.2801 11.2113L66.2835 5.87355C65.2965 5.84575 64.4138 5.7137 63.6354 5.47739C62.857 5.24108 62.2384 4.87967 61.7797 4.39315C61.3349 3.90664 61.1125 3.26722 61.1125 2.47489C61.1125 2.23858 61.1264 1.97447 61.1542 1.68256C61.1959 1.37675 61.2515 1.05009 61.321 0.702582C61.877 0.924989 62.5373 1.12655 63.3018 1.30725C64.0802 1.47406 64.8656 1.62001 65.6579 1.74512C66.4642 1.87022 67.1939 1.96752 67.8473 2.03703C68.5006 2.09263 68.9871 2.12043 69.3068 2.12043C69.6126 1.59221 69.9671 1.2169 70.3702 0.994492C70.7733 0.758184 71.1973 0.64003 71.6421 0.64003C72.3371 0.64003 72.8584 0.855487 73.2059 1.2864C73.5534 1.70341 73.7271 2.19688 73.7271 2.7668C73.7271 3.28112 73.5673 3.72593 73.2476 4.10124C72.9279 4.46266 72.5039 4.76151 71.9757 4.99782L66.6379 11.67L70.3076 12.0662L72.8306 10.9194C72.9001 11.1974 72.9418 11.4754 72.9557 11.7534C72.9835 12.0176 72.9974 12.2886 72.9974 12.5666C72.9974 13.4284 72.8445 14.1304 72.5387 14.6725C72.2467 15.2147 71.8506 15.6108 71.3502 15.861C70.8498 16.1251 70.2937 16.2572 69.6821 16.2572Z" fill="black"/>
<path d="M50.5591 16.278C49.6278 16.278 48.9675 16.0139 48.5783 15.4857C48.203 14.9436 48.0153 14.1304 48.0153 13.0462C48.0153 12.3512 48.1265 11.3086 48.3489 9.91858C48.5853 8.51464 48.9119 6.65893 49.3289 4.35145L48.2238 2.12043C48.8772 1.70342 49.5722 1.34896 50.3089 1.05705C51.0456 0.751236 51.7824 0.598331 52.5191 0.598331C52.9917 0.598331 53.3392 0.709535 53.5616 0.931942C53.7979 1.15435 53.9578 1.43236 54.0412 1.76597C54.5277 1.75207 55.0976 1.69647 55.7509 1.59916C56.4043 1.50186 57.0923 1.37676 57.8152 1.22385C58.538 1.07095 59.24 0.897191 59.9211 0.702585C59.9906 0.966693 60.0323 1.20995 60.0462 1.43236C60.074 1.65477 60.0879 1.86327 60.0879 2.05788C60.0879 2.8502 59.9072 3.49658 59.5458 3.99699C59.1843 4.49741 58.6978 4.86577 58.0862 5.10208C57.4885 5.33839 56.8282 5.45654 56.1054 5.45654C55.327 5.45654 54.5485 5.28973 53.7701 4.95612C53.6867 5.42874 53.5964 5.92916 53.4991 6.45737C53.4018 6.97169 53.2975 7.49296 53.1863 8.02117C53.4087 8.06288 53.6242 8.09763 53.8327 8.12543C54.0551 8.15323 54.2775 8.16713 54.4999 8.16713C54.7779 8.11153 55.0907 8.04202 55.4382 7.95862C55.7996 7.86132 56.1123 7.77097 56.3765 7.68756C56.4321 7.86827 56.4599 8.05592 56.4599 8.25053C56.4738 8.43124 56.4807 8.57719 56.4807 8.68839C56.4807 9.35562 56.2514 9.84213 55.7926 10.1479C55.3478 10.4538 54.8196 10.6067 54.208 10.6067C53.9439 10.6067 53.6937 10.5928 53.4574 10.565C53.2211 10.5233 52.9847 10.4746 52.7484 10.419C52.6789 10.836 52.6233 11.2322 52.5816 11.6075C52.5399 11.9828 52.5191 12.4137 52.5191 12.9002H55.8969C56.9533 12.7473 58.0167 12.4763 59.087 12.0871C59.1426 12.24 59.1774 12.3998 59.1913 12.5666C59.2052 12.7334 59.2122 12.9141 59.2122 13.1087C59.2122 13.5953 59.1148 14.0818 58.9202 14.5683C58.7256 15.0548 58.4268 15.4579 58.0237 15.7776C57.6205 16.0973 57.1132 16.2572 56.5016 16.2572C56.1819 16.2572 55.8552 16.2294 55.5216 16.1738C55.188 16.1182 54.8405 16.0556 54.479 15.9861C54.2149 15.9305 53.93 15.8749 53.6242 15.8193C53.3323 15.7637 53.0056 15.7151 52.6442 15.6734C51.977 16.0765 51.2819 16.278 50.5591 16.278Z" fill="black"/>
<path d="M36.4772 16.2572C35.5876 16.2572 34.7883 16.1112 34.0794 15.8193C33.3844 15.5274 32.8353 15.0965 32.4322 14.5266C32.0291 13.9428 31.8275 13.213 31.8275 12.3373C31.8275 11.809 31.8901 11.121 32.0152 10.273C32.1542 9.42512 32.321 8.49379 32.5156 7.47905C32.7102 6.45042 32.8979 5.40789 33.0786 4.35145L31.9735 2.12043C32.7519 1.67561 33.4956 1.3142 34.2045 1.03619C34.9273 0.758183 35.6849 0.619179 36.4772 0.619179C36.8109 0.619179 37.0889 0.674781 37.3113 0.785985C37.5337 0.897188 37.7144 1.05009 37.8534 1.2447C38.4511 1.03619 39.0141 0.883287 39.5423 0.785985C40.0705 0.688681 40.5709 0.640029 41.0435 0.640029C42.3085 0.640029 43.3649 0.924989 44.2128 1.49491C45.0608 2.06483 45.6932 2.81545 46.1103 3.74678C46.5412 4.67811 46.7566 5.69284 46.7566 6.79098C46.7566 7.66671 46.6176 8.54939 46.3396 9.43902C46.0755 10.3286 45.6654 11.1835 45.1094 12.0037C44.5673 12.8238 43.8862 13.5536 43.0661 14.193C42.2459 14.8324 41.2868 15.3398 40.1887 15.7151C39.0905 16.0765 37.8534 16.2572 36.4772 16.2572ZM37.2279 13.213C38.2843 13.213 39.167 12.9489 39.8759 12.4207C40.5987 11.8924 41.1408 11.1974 41.5023 10.3356C41.8637 9.47377 42.0444 8.54244 42.0444 7.54161C42.0444 6.29056 41.7594 5.27583 41.1895 4.49741C40.6196 3.70508 39.7717 3.30892 38.6457 3.30892C38.5206 3.30892 38.3886 3.31587 38.2496 3.32977C38.1105 3.34367 37.9646 3.36452 37.8117 3.39232C37.7283 3.94834 37.6171 4.64336 37.4781 5.47739C37.353 6.31142 37.207 7.20104 37.0402 8.14628C36.8873 9.07761 36.7344 9.98808 36.5815 10.8777C36.4425 11.7534 36.3313 12.5041 36.2479 13.1296C36.4147 13.1574 36.5815 13.1782 36.7483 13.1921C36.9151 13.206 37.075 13.213 37.2279 13.213Z" fill="black"/>
<path d="M16.1245 16.278C15.1932 16.278 14.5329 16.0139 14.1437 15.4857C13.7684 14.9436 13.5808 14.1304 13.5808 13.0462C13.5808 12.3512 13.692 11.3086 13.9144 9.91858C14.1507 8.51464 14.4773 6.65893 14.8944 4.35145L13.7893 2.12043C14.4426 1.70341 15.1376 1.34895 15.8743 1.05704C16.6111 0.765134 17.3478 0.619179 18.0845 0.619179C19.0853 0.619179 19.8707 0.772084 20.4406 1.07789C21.0106 1.3837 21.4345 1.81462 21.7125 2.37064C22.0044 2.92665 22.2199 3.57998 22.3589 4.3306C22.5118 5.08122 22.6508 5.90135 22.7759 6.79098C22.901 7.66671 23.0887 8.58414 23.3389 9.54327C23.5891 10.5024 23.9714 11.4754 24.4857 12.4624L24.9861 12.1288C24.5969 11.3642 24.2702 10.4746 24.0061 9.45987C23.7559 8.44513 23.6308 7.4304 23.6308 6.41567C23.6308 5.40093 23.7976 4.4557 24.1312 3.57998C24.4787 2.70425 24.993 1.99532 25.6742 1.45321C26.3553 0.897187 27.2032 0.619179 28.2179 0.619179C28.5377 0.619179 28.8713 0.65393 29.2188 0.723432C29.5802 0.779034 29.8929 0.876337 30.1571 1.01534C30.032 1.76597 29.886 2.59304 29.7192 3.49657C29.5524 4.3862 29.3786 5.28973 29.1979 6.20716C29.0311 7.12459 28.8713 7.99337 28.7184 8.8135C28.5794 9.63362 28.4612 10.3495 28.3639 10.9611C28.2805 11.5588 28.2388 11.9828 28.2388 12.233C28.2388 12.9558 28.2944 13.5536 28.4056 14.0262C28.5168 14.4849 28.6836 14.8741 28.906 15.1938C28.5029 15.4579 28.1276 15.6664 27.7801 15.8193C27.4326 15.9722 27.0573 16.0834 26.6541 16.1529C26.2649 16.2224 25.8062 16.2572 25.278 16.2572C24.1938 16.2572 23.2833 16 22.5466 15.4857C21.8237 14.9714 21.2399 14.2625 20.7951 13.3589C20.3503 12.4554 20.0167 11.4198 19.7943 10.2522C19.5858 9.08456 19.4468 7.84742 19.3773 6.54077H19.0436C18.8768 7.3192 18.717 8.09762 18.5641 8.87605C18.4251 9.65447 18.3069 10.3495 18.2096 10.9611C18.1262 11.5727 18.0845 12.0245 18.0845 12.3164C18.0845 13.0253 18.1332 13.6231 18.2305 14.1096C18.3417 14.5961 18.5015 15.0062 18.71 15.3398C17.876 15.9653 17.0142 16.278 16.1245 16.278Z" fill="black"/>
<path d="M3.3193 16.278C2.38797 16.278 1.72769 16.0139 1.33848 15.4857C0.963169 14.9436 0.775513 14.1304 0.775513 13.0462C0.775513 12.3512 0.886716 11.3086 1.10912 9.91858C1.34543 8.51464 1.67209 6.65893 2.08911 4.35145L0.984019 2.12043C1.63734 1.70342 2.33236 1.34896 3.06909 1.05705C3.80581 0.751236 4.54254 0.598331 5.27926 0.598331C5.75188 0.598331 6.09939 0.709535 6.32179 0.931942C6.5581 1.15435 6.71796 1.43236 6.80136 1.76597C7.28788 1.75207 7.85779 1.69647 8.51112 1.59916C9.16444 1.50186 9.85251 1.37676 10.5753 1.22385C11.2982 1.07095 12.0001 0.897191 12.6813 0.702585C12.7508 0.966693 12.7925 1.20995 12.8064 1.43236C12.8342 1.65477 12.8481 1.86327 12.8481 2.05788C12.8481 2.8502 12.6674 3.49658 12.3059 3.99699C11.9445 4.49741 11.458 4.86577 10.8464 5.10208C10.2487 5.33839 9.5884 5.45654 8.86558 5.45654C8.08715 5.45654 7.30873 5.28973 6.5303 4.95612C6.4469 5.42874 6.35655 5.92916 6.25924 6.45737C6.16194 6.97169 6.05769 7.49296 5.94648 8.02117C6.16889 8.06288 6.38435 8.09763 6.59285 8.12543C6.81526 8.15323 7.03767 8.16713 7.26008 8.16713C7.53808 8.11153 7.85084 8.04202 8.19836 7.95862C8.55977 7.86132 8.87253 7.77097 9.13664 7.68756C9.19224 7.86827 9.22004 8.05592 9.22004 8.25053C9.23394 8.43124 9.24089 8.57719 9.24089 8.68839C9.24089 9.35562 9.01153 9.84213 8.55282 10.1479C8.108 10.4538 7.57979 10.6067 6.96817 10.6067C6.70406 10.6067 6.45385 10.5928 6.21754 10.565C5.98123 10.5233 5.74493 10.4746 5.50862 10.419C5.43912 10.836 5.38351 11.2322 5.34181 11.6075C5.30011 11.9828 5.27926 12.4137 5.27926 12.9002H8.65707C9.7135 12.7473 10.7769 12.4763 11.8472 12.0871C11.9028 12.24 11.9376 12.3998 11.9515 12.5666C11.9654 12.7334 11.9723 12.9141 11.9723 13.1087C11.9723 13.5953 11.875 14.0818 11.6804 14.5683C11.4858 15.0548 11.187 15.4579 10.7838 15.7776C10.3807 16.0973 9.87336 16.2572 9.26174 16.2572C8.94203 16.2572 8.61537 16.2294 8.28176 16.1738C7.94815 16.1182 7.60064 16.0556 7.23922 15.9861C6.97512 15.9305 6.69016 15.8749 6.38435 15.8193C6.09244 15.7637 5.76578 15.7151 5.40436 15.6734C4.73714 16.0765 4.04212 16.278 3.3193 16.278Z" fill="black"/>
</svg>
