<svg width="70" height="17" viewBox="0 0 70 17" fill="none" xmlns="http://www.w3.org/2000/svg">
<path d="M61.9852 16.364C61.0539 16.364 60.3936 16.0999 60.0044 15.5717C59.6291 15.0296 59.4414 14.2164 59.4414 13.1322C59.4414 12.4371 59.5526 11.3946 59.775 10.0046C60.0114 8.60062 60.338 6.74491 60.755 4.43743L59.6499 2.20641C60.3033 1.7894 60.9983 1.43493 61.735 1.14302C62.4717 0.837216 63.2085 0.684311 63.9452 0.684311C64.5985 0.684311 65.0294 0.878917 65.2379 1.26813C65.4464 1.65734 65.5507 2.11606 65.5507 2.64427C65.5507 2.86668 65.509 3.22809 65.4256 3.72851C65.3561 4.21503 65.2588 4.79189 65.1337 5.45912C65.0086 6.11244 64.8765 6.80051 64.7375 7.52333C64.6124 8.24616 64.4873 8.96203 64.3622 9.67095C64.2371 10.366 64.1328 11.0054 64.0494 11.5892C63.9799 12.1591 63.9452 12.6248 63.9452 12.9862H66.1971C67.2535 12.8333 68.3169 12.5622 69.3872 12.173C69.4428 12.3259 69.4776 12.4858 69.4915 12.6526C69.5054 12.8194 69.5123 13.0001 69.5123 13.1947C69.5123 13.6812 69.415 14.1678 69.2204 14.6543C69.0258 15.1408 68.7269 15.5439 68.3238 15.8636C67.9207 16.1833 67.4133 16.3432 66.8017 16.3432C66.204 16.3432 65.6827 16.2876 65.2379 16.1764C64.7931 16.0791 64.3274 15.9818 63.8409 15.8845C63.5351 16.0513 63.2293 16.1694 62.9235 16.2389C62.6177 16.3223 62.3049 16.364 61.9852 16.364Z" fill="black"/>
<path d="M49.0757 16.364C48.1444 16.364 47.4841 16.0999 47.0949 15.5717C46.7196 15.0296 46.5319 14.2164 46.5319 13.1322C46.5319 12.4371 46.6431 11.3946 46.8655 10.0046C47.1019 8.60062 47.4285 6.74491 47.8455 4.43743L46.7404 2.20641C47.3938 1.7894 48.0888 1.43493 48.8255 1.14302C49.5622 0.837216 50.299 0.684311 51.0357 0.684311C51.5083 0.684311 51.8558 0.795514 52.0782 1.01792C52.3145 1.24033 52.4744 1.51834 52.5578 1.85195C53.0443 1.83805 53.6142 1.78245 54.2675 1.68514C54.9209 1.58784 55.6089 1.46274 56.3318 1.30983C57.0546 1.15693 57.7566 0.983171 58.4377 0.788564C58.5072 1.05267 58.5489 1.29593 58.5628 1.51834C58.5906 1.74074 58.6045 1.94925 58.6045 2.14386C58.6045 2.93618 58.4238 3.58255 58.0624 4.08297C57.701 4.58339 57.2144 4.95175 56.6028 5.18806C56.0051 5.42437 55.3448 5.54252 54.622 5.54252C53.8436 5.54252 53.0651 5.37571 52.2867 5.0421C52.2033 5.51472 52.113 6.01513 52.0157 6.54335C51.9184 7.05767 51.8141 7.57894 51.7029 8.10715C51.9253 8.14885 52.1408 8.18361 52.3493 8.21141C52.5717 8.23921 52.7941 8.25311 53.0165 8.25311C53.2945 8.19751 53.6073 8.128 53.9548 8.0446C54.3162 7.9473 54.629 7.85695 54.8931 7.77354C54.9487 7.95425 54.9765 8.1419 54.9765 8.33651C54.9904 8.51722 54.9973 8.66317 54.9973 8.77437C54.9973 9.4416 54.768 9.92811 54.3092 10.2339C53.8644 10.5397 53.3362 10.6926 52.7246 10.6926C52.4605 10.6926 52.2103 10.6787 51.974 10.6509C51.7377 10.6092 51.5013 10.5606 51.265 10.505C51.1955 10.922 51.1399 11.3182 51.0982 11.6935C51.0565 12.0688 51.0357 12.4997 51.0357 12.9862H54.4135C55.4699 12.8333 56.5333 12.5622 57.6036 12.173C57.6593 12.3259 57.694 12.4858 57.7079 12.6526C57.7218 12.8194 57.7288 13.0001 57.7288 13.1947C57.7288 13.6812 57.6315 14.1678 57.4368 14.6543C57.2422 15.1408 56.9434 15.5439 56.5403 15.8636C56.1372 16.1833 55.6298 16.3432 55.0182 16.3432C54.6985 16.3432 54.3718 16.3154 54.0382 16.2598C53.7046 16.2042 53.3571 16.1416 52.9956 16.0721C52.7315 16.0165 52.4466 15.9609 52.1408 15.9053C51.8489 15.8497 51.5222 15.8011 51.1608 15.7594C50.4936 16.1625 49.7985 16.364 49.0757 16.364Z" fill="black"/>
<path d="M38.6144 16.364C37.683 16.364 37.0228 16.0999 36.6336 15.5717C36.2582 15.0296 36.0706 14.2164 36.0706 13.1322C36.0706 12.4649 36.1748 11.4711 36.3833 10.1505C36.5919 8.82998 36.8907 7.09937 37.2799 4.9587C36.9602 5.0004 36.5502 5.06295 36.0497 5.14635C35.5632 5.22976 35.0698 5.32011 34.5693 5.41741C34.0689 5.50082 33.6519 5.58422 33.3183 5.66762C33.2349 5.40351 33.1862 5.14635 33.1723 4.89615C33.1584 4.64594 33.1515 4.45133 33.1515 4.31233C33.1515 3.52 33.2905 2.87363 33.5685 2.37321C33.8604 1.8728 34.2427 1.50444 34.7153 1.26813C35.1879 1.03182 35.7022 0.913666 36.2582 0.913666C36.9672 0.913666 37.6691 0.983168 38.3642 1.12217C39.0592 1.24728 39.7542 1.37933 40.4492 1.51834C41.1582 1.65734 41.881 1.74074 42.6177 1.76854C43.132 1.67124 43.7019 1.54614 44.3275 1.39323C44.9669 1.24033 45.5229 1.09437 45.9955 0.955367C46.0789 1.21948 46.1276 1.47663 46.1415 1.72684C46.1554 1.97705 46.1623 2.17166 46.1623 2.31066C46.1623 3.10299 46.0025 3.74936 45.6828 4.24978C45.3769 4.75019 44.9599 5.11855 44.4317 5.35486C43.9174 5.59117 43.3475 5.70932 42.722 5.70932C42.5412 5.70932 42.3675 5.70932 42.2007 5.70932C42.0339 5.69542 41.874 5.68152 41.7211 5.66762C41.596 6.29314 41.464 6.94646 41.325 7.62759C41.1999 8.30871 41.0817 8.96898 40.9705 9.6084C40.8593 10.2339 40.762 10.7969 40.6786 11.2973C40.6091 11.7838 40.5743 12.1522 40.5743 12.4024C40.5743 13.1113 40.623 13.709 40.7203 14.1956C40.8315 14.6821 40.9913 15.0921 41.1999 15.4257C40.3658 16.0513 39.504 16.364 38.6144 16.364Z" fill="black"/>
<path d="M24.469 16.3432C22.9677 16.3432 21.675 16.0513 20.5908 15.4674C19.5204 14.8836 18.6933 14.0704 18.1095 13.0279C17.5396 11.9854 17.2546 10.7899 17.2546 9.44159C17.2546 7.69013 17.5813 6.16108 18.2346 4.85444C18.9019 3.5478 19.8471 2.53306 21.0703 1.81024C22.3075 1.07352 23.7879 0.705154 25.5115 0.705154C26.3455 0.705154 26.9363 0.87891 27.2838 1.22642C27.6313 1.56003 27.8051 2.0535 27.8051 2.70682C27.8051 2.80412 27.7981 2.89448 27.7842 2.97788C27.7842 3.06128 27.7773 3.15858 27.7634 3.26979C28.2916 2.85277 28.8615 2.64427 29.4731 2.64427C29.9875 2.64427 30.4809 2.80412 30.9535 3.12383C31.4262 3.42964 31.8084 3.90921 32.1003 4.56253C32.4061 5.21585 32.559 6.04293 32.559 7.04376C32.559 8.53111 32.3297 9.85165 31.871 11.0054C31.4262 12.1591 30.8145 13.1322 30.0361 13.9245C29.2716 14.7168 28.4098 15.3215 27.4506 15.7385C26.4915 16.1416 25.4976 16.3432 24.469 16.3432ZM24.6358 13.299C25.3169 13.299 25.9355 13.0349 26.4915 12.5066C27.0614 11.9645 27.4506 11.2695 27.6591 10.4216C27.1726 9.82385 26.8251 9.22613 26.6166 8.62841C26.422 8.01679 26.3247 7.41212 26.3247 6.8144C26.3247 6.18888 26.4011 5.63287 26.5541 5.14635C26.707 4.65983 26.9085 4.24282 27.1587 3.89531C26.9085 3.85361 26.6583 3.83276 26.4081 3.83276C25.6297 3.83276 24.9485 3.99956 24.3647 4.33317C23.7948 4.66678 23.3152 5.1116 22.926 5.66762C22.5507 6.20973 22.2658 6.80745 22.0712 7.46077C21.8904 8.1002 21.8001 8.73267 21.8001 9.35819C21.8001 10.0671 21.9043 10.7204 22.1129 11.3182C22.3353 11.9159 22.655 12.3954 23.072 12.7568C23.5029 13.1183 24.0242 13.299 24.6358 13.299Z" fill="black"/>
<path d="M3.34268 16.364C2.41135 16.364 1.75108 16.0999 1.36187 15.5717C0.986553 15.0296 0.798897 14.2164 0.798897 13.1322C0.798897 12.4371 0.9101 11.3946 1.13251 10.0046C1.36882 8.60062 1.69548 6.74491 2.11249 4.43743L1.0074 2.20641C1.66072 1.7894 2.35575 1.43493 3.09247 1.14302C3.8292 0.837216 4.56592 0.684311 5.30264 0.684311C5.95597 0.684311 6.38688 0.878917 6.59539 1.26813C6.80389 1.65734 6.90815 2.11606 6.90815 2.64427C6.90815 2.88058 6.85949 3.26979 6.76219 3.81191C6.67879 4.34013 6.56759 4.95175 6.42858 5.64677C6.30348 6.3418 6.17142 7.05072 6.03242 7.77354H10.703C10.7864 7.28703 10.8767 6.76576 10.974 6.20974C11.0852 5.65372 11.1964 5.06295 11.3076 4.43743L10.2026 2.20641C10.8559 1.7894 11.5509 1.43493 12.2876 1.14302C13.0243 0.837216 13.7611 0.684311 14.4978 0.684311C15.1511 0.684311 15.582 0.878917 15.7905 1.26813C15.999 1.65734 16.1033 2.11606 16.1033 2.64427C16.1033 2.86668 16.0616 3.22809 15.9782 3.72851C15.9087 4.21503 15.8114 4.78494 15.6863 5.43827C15.5612 6.07769 15.4291 6.75186 15.2901 7.46078C15.165 8.1558 15.0399 8.83693 14.9148 9.50415C14.7897 10.1575 14.6855 10.7413 14.602 11.2556C14.5325 11.756 14.4978 12.1383 14.4978 12.4024C14.4978 13.1113 14.5464 13.709 14.6437 14.1956C14.755 14.6821 14.9148 15.0921 15.1233 15.4257C14.2893 16.0513 13.4275 16.364 12.5378 16.364C11.6065 16.364 10.9462 16.0999 10.557 15.5717C10.1817 15.0296 9.99405 14.2164 9.99405 13.1322C9.99405 12.8125 10.0149 12.4163 10.0566 11.9437C10.1122 11.4572 10.1887 10.8942 10.286 10.2548H5.5737C5.4903 10.7274 5.4208 11.1583 5.3652 11.5475C5.32349 11.9228 5.30264 12.2078 5.30264 12.4024C5.30264 13.1113 5.3513 13.709 5.4486 14.1956C5.5598 14.6821 5.71966 15.0921 5.92816 15.4257C5.09414 16.0513 4.23231 16.364 3.34268 16.364Z" fill="black"/>
</svg>
