<svg width="180" height="25" viewBox="0 0 180 25" fill="none" xmlns="http://www.w3.org/2000/svg">
<path d="M3.81567 23.8079C2.41868 23.8079 1.42827 23.4118 0.844453 22.6194C0.281484 21.8063 0 20.5865 0 18.9601C0 17.9176 0.166805 16.3538 0.500416 14.2687C0.854878 12.1628 1.34487 9.37926 1.97039 5.91805L0.31276 2.57151C1.29274 1.94599 2.33528 1.4143 3.44036 0.976433C4.54545 0.538569 5.65053 0.319637 6.75562 0.319637C7.31859 0.319637 7.93368 0.40304 8.60091 0.569846C9.28898 0.73665 9.8311 0.966007 10.2273 1.25792C11.7911 0.632397 13.1985 0.319637 14.4495 0.319637C15.8048 0.319637 16.9412 0.632397 17.8586 1.25792C18.7969 1.88344 19.5058 2.69661 19.9854 3.69745C20.4649 4.69828 20.7047 5.77209 20.7047 6.91888C20.7047 8.21162 20.3711 9.49394 19.7039 10.7658C19.0367 12.0377 18.015 13.0907 16.6388 13.9247C17.0976 15.2174 17.598 16.4268 18.1401 17.5527C18.7031 18.6578 19.2869 19.6065 19.8916 20.3988C20.4962 21.1703 179.416 20.2216 180 20.5552C179.708 20.868 79.4412 22.3979 78.9199 22.669C78.3986 22.9192 25.49 24.9495 18.7969 23.5264C18.2131 23.6932 17.6814 23.7766 17.2018 23.7766C16.3052 23.7766 15.5129 23.6307 14.8248 23.3388C14.1368 23.0677 13.5217 22.5569 12.9795 21.8063C12.4583 21.0556 11.9579 20.0027 11.4783 18.6474L10.3836 15.4885C9.2994 15.4885 8.20474 15.3217 7.09966 14.9881C6.8703 16.3225 6.75562 17.2817 6.75562 17.8655C6.75562 18.9289 6.8286 19.8254 6.97455 20.5552C7.14136 21.285 7.38114 21.9001 7.6939 22.4005C6.44286 23.3388 5.15012 23.8079 3.81567 23.8079ZM8.4758 11.579C9.66429 11.579 10.6443 11.3705 11.4157 10.9535C12.2081 10.5156 12.7919 9.9735 13.1672 9.32713C13.5634 8.65991 13.7614 8.00311 13.7614 7.35674C13.7614 6.56441 13.5008 5.86592 12.9795 5.26125C12.4583 4.63573 11.6764 4.32297 10.6338 4.32297C10.0917 4.32297 9.54961 4.39595 9.00749 4.5419C8.92409 5.10487 8.81984 5.78251 8.69473 6.57484C8.56963 7.34632 8.4341 8.16992 8.28815 9.04565C8.14219 9.90052 7.96496 10.7346 7.75645 11.5477C7.86071 11.5686 7.96496 11.579 8.06921 11.579C8.19432 11.579 8.32985 11.579 8.4758 11.579Z" fill="#1E5631"/>
</svg>
